<?xml version="1.0" encoding="utf-8"?>
<!-- Generator: Adobe Illustrator 18.1.1, SVG Export Plug-In . SVG Version: 6.00 Build 0)  -->
<svg version="1.1" id="Logo" xmlns="http://www.w3.org/2000/svg" xmlns:xlink="http://www.w3.org/1999/xlink" x="0px" y="0px"
	 viewBox="0 0 1765.8 1765.8" enable-background="new 0 0 1765.8 1765.8" xml:space="preserve">
<g>
	<path d="M882.9,159.1c235.8,0,263.7,0.9,356.8,5.1c86.1,3.9,132.8,18.3,163.9,30.4c41.2,16,70.6,35.2,101.5,66
		c30.9,30.9,50,60.3,66,101.5c12.1,31.1,26.5,77.9,30.4,163.9c4.2,93.1,5.1,121,5.1,356.8s-0.9,263.7-5.1,356.8
		c-3.9,86.1-18.3,132.8-30.4,163.9c-16,41.2-35.2,70.6-66,101.5c-30.9,30.9-60.3,50-101.5,66c-31.1,12.1-77.9,26.5-163.9,30.4
		c-93.1,4.2-121,5.1-356.8,5.1s-263.7-0.9-356.8-5.1c-86.1-3.9-132.8-18.3-163.9-30.4c-41.2-16-70.6-35.2-101.5-66
		c-30.9-30.9-50-60.3-66-101.5c-12.1-31.1-26.5-77.9-30.4-163.9c-4.2-93.1-5.1-121-5.1-356.8s0.9-263.7,5.1-356.8
		c3.9-86.1,18.3-132.8,30.4-163.9c16-41.2,35.2-70.6,66-101.5c30.9-30.9,60.3-50,101.5-66c31.1-12.1,77.9-26.5,163.9-30.4
		C619.2,160,647.2,159.1,882.9,159.1 M882.9,0c-239.8,0-269.9,1-364,5.3c-94,4.3-158.2,19.2-214.3,41
		c-58.1,22.6-107.3,52.8-156.4,101.8c-49.1,49.1-79.3,98.3-101.8,156.4c-21.8,56.2-36.8,120.3-41,214.3C1,613.1,0,643.1,0,882.9
		c0,239.8,1,269.9,5.3,364c4.3,94,19.2,158.2,41,214.3c22.6,58.1,52.8,107.3,101.8,156.4c49.1,49.1,98.3,79.3,156.4,101.8
		c56.2,21.8,120.3,36.8,214.3,41c94.2,4.3,124.2,5.3,364,5.3s269.9-1,364-5.3c94-4.3,158.2-19.2,214.3-41
		c58.1-22.6,107.3-52.8,156.4-101.8c49.1-49.1,79.3-98.3,101.8-156.4c21.8-56.2,36.8-120.3,41-214.3c4.3-94.2,5.3-124.2,5.3-364
		s-1-269.9-5.3-364c-4.3-94-19.2-158.2-41-214.3c-22.6-58.1-52.8-107.3-101.8-156.4c-49.1-49.1-98.3-79.3-156.4-101.8
		c-56.2-21.8-120.3-36.8-214.3-41C1152.8,1,1122.7,0,882.9,0L882.9,0z"/>
	<path d="M882.9,429.5c-250.4,0-453.4,203-453.4,453.4s203,453.4,453.4,453.4s453.4-203,453.4-453.4S1133.3,429.5,882.9,429.5z
		 M882.9,1177.2c-162.5,0-294.3-131.8-294.3-294.3s131.8-294.3,294.3-294.3s294.3,131.8,294.3,294.3S1045.5,1177.2,882.9,1177.2z"/>
	<circle cx="1354.2" cy="411.6" r="106"/>
</g>
</svg>
