<?xml version="1.0" encoding="utf-8"?>
<!-- Generator: Adobe Illustrator 24.1.3, SVG Export Plug-In . SVG Version: 6.00 Build 0)  -->
<svg version="1.1" id="Layer_1" xmlns="http://www.w3.org/2000/svg" xmlns:xlink="http://www.w3.org/1999/xlink" x="0px" y="0px"
	 viewBox="0 0 24 19.1" style="enable-background:new 0 0 24 19.1;" xml:space="preserve">
<style type="text/css">
	.st0{fill-rule:evenodd;clip-rule:evenodd;}
</style>
<path class="st0" d="M2.8,3.9c0-0.3-0.1-0.6-0.3-0.8L0.3,0.4V0h7l5.4,11.8L17.4,0H24v0.4l-1.9,1.8c-0.2,0.1-0.2,0.3-0.2,0.5v13.5
	c0,0.2,0,0.4,0.2,0.5l1.9,1.8v0.4h-9.4v-0.4l1.9-1.9c0.2-0.2,0.2-0.2,0.2-0.5V5.3L11.3,19h-0.7L4.3,5.3v9.2
	c-0.1,0.4,0.1,0.8,0.3,1.1l2.5,3.1V19H0v-0.4l2.5-3.1c0.3-0.3,0.4-0.7,0.3-1.1C2.8,14.5,2.8,3.9,2.8,3.9z"/>
</svg>
